# xmcd
#
# Track frame offsets: 
#        150
#        15665
#        29540
#        48067
#        75915
#        92547
#        104242
#        122520
#        133717
#        148447
#        166420
#        181840
#
# Disc length: 2672 seconds
#
# Revision: 2
# Processed by: cddbd v1.5.2PL0 Copyright (c) Steve Scherf et al.
# Submitted via: ExactAudioCopy v0.99pb3
#
DISCID=990a6e0c
DTITLE=Chris Cain - Cain Does King
DYEAR=2001
DGENRE=Blues
TTITLE0=Heartbreaker (King - Pamco - LZMC)
TTITLE1=Whole Lot Of Lovin'
TTITLE2=Better Not Look Down
TTITLE3=Gamblers' Blues
TTITLE4=I'm Gonna Do What They Do To Me
TTITLE5=I'm Gunna Quit My Baby
TTITLE6=Take It Home
TTITLE7=I'm Going Home
TTITLE8=House Rocker
TTITLE9=Lookin The World Over
TTITLE10=So Excited
TTITLE11=Hummingbird
EXTD=
EXTT0=
EXTT1=
EXTT2=
EXTT3=
EXTT4=
EXTT5=
EXTT6=
EXTT7=
EXTT8=
EXTT9=
EXTT10=
EXTT11=
PLAYORDER=
